<mxfile host="app.diagrams.net" modified="2023-07-25T21:14:56.217Z" agent="Mozilla/5.0 (X11; Linux x86_64; rv:109.0) Gecko/20100101 Firefox/115.0" etag="dVF6lD3zLr5RCbfzdPWs" version="21.6.5" type="device">
  <diagram id="C5RBs43oDa-KdzZeNtuy" name="Page-1">
    <mxGraphModel dx="637" dy="358" grid="1" gridSize="10" guides="1" tooltips="1" connect="1" arrows="1" fold="1" page="1" pageScale="1" pageWidth="850" pageHeight="1100" background="#5A657D" math="0" shadow="1">
      <root>
        <mxCell id="WIyWlLk6GJQsqaUBKTNV-0" />
        <mxCell id="WIyWlLk6GJQsqaUBKTNV-1" parent="WIyWlLk6GJQsqaUBKTNV-0" />
        <mxCell id="lEryGDBUFIUMpNGzXzRM-27" value="" style="endArrow=block;html=1;rounded=0;endFill=0;labelBackgroundColor=none;strokeColor=#23445D;fontColor=default;" parent="WIyWlLk6GJQsqaUBKTNV-1" edge="1">
          <mxGeometry relative="1" as="geometry">
            <mxPoint x="130" y="290" as="sourcePoint" />
            <mxPoint x="130" y="330" as="targetPoint" />
          </mxGeometry>
        </mxCell>
        <mxCell id="WIyWlLk6GJQsqaUBKTNV-6" value="&lt;div&gt; quieres cambiar de&lt;/div&gt;&lt;div&gt;&amp;nbsp;sistema operativo?&lt;/div&gt;" style="rhombus;whiteSpace=wrap;html=1;shadow=0;fontFamily=Helvetica;fontSize=12;align=center;strokeWidth=1;spacing=6;spacingTop=-4;labelBackgroundColor=none;fillColor=#182E3E;strokeColor=#FFFFFF;fontColor=#FFFFFF;" parent="WIyWlLk6GJQsqaUBKTNV-1" vertex="1">
          <mxGeometry x="260" y="110" width="160" height="160" as="geometry" />
        </mxCell>
        <mxCell id="WIyWlLk6GJQsqaUBKTNV-10" value="tiempo de instalacion" style="rhombus;whiteSpace=wrap;html=1;shadow=0;fontFamily=Helvetica;fontSize=12;align=center;strokeWidth=1;spacing=6;spacingTop=-4;labelBackgroundColor=none;fillColor=#182E3E;strokeColor=#FFFFFF;fontColor=#FFFFFF;" parent="WIyWlLk6GJQsqaUBKTNV-1" vertex="1">
          <mxGeometry x="300" y="510" width="100" height="100" as="geometry" />
        </mxCell>
        <mxCell id="WIyWlLk6GJQsqaUBKTNV-11" value="&lt;div&gt;EndevoarOS&lt;/div&gt;,archcraft" style="rounded=1;whiteSpace=wrap;html=1;fontSize=12;glass=0;strokeWidth=1;shadow=0;labelBackgroundColor=none;fillColor=#182E3E;strokeColor=#FFFFFF;fontColor=#FFFFFF;" parent="WIyWlLk6GJQsqaUBKTNV-1" vertex="1">
          <mxGeometry x="600" y="810" width="100" height="50" as="geometry" />
        </mxCell>
        <mxCell id="B3d_4BNv6bFsKflRq1dp-0" value="&lt;div&gt;te precupa la &lt;br&gt;&lt;/div&gt;&lt;div&gt;privacidad&lt;br&gt;&lt;/div&gt;" style="rhombus;whiteSpace=wrap;html=1;shadow=0;fontFamily=Helvetica;fontSize=12;align=center;strokeWidth=1;spacing=6;spacingTop=-4;labelBackgroundColor=none;fillColor=#182E3E;strokeColor=#FFFFFF;fontColor=#FFFFFF;" parent="WIyWlLk6GJQsqaUBKTNV-1" vertex="1">
          <mxGeometry x="430" y="210" width="120" height="100" as="geometry" />
        </mxCell>
        <mxCell id="B3d_4BNv6bFsKflRq1dp-1" value="WSL2 o virtualbox" style="rounded=1;whiteSpace=wrap;html=1;fontSize=12;glass=0;strokeWidth=1;shadow=0;labelBackgroundColor=none;fillColor=#182E3E;strokeColor=#FFFFFF;fontColor=#FFFFFF;" parent="WIyWlLk6GJQsqaUBKTNV-1" vertex="1">
          <mxGeometry x="610" y="300" width="120" height="40" as="geometry" />
        </mxCell>
        <mxCell id="B3d_4BNv6bFsKflRq1dp-4" value="reconsidera" style="rounded=1;whiteSpace=wrap;html=1;fontSize=12;glass=0;strokeWidth=1;shadow=0;labelBackgroundColor=none;fillColor=#182E3E;strokeColor=#FFFFFF;fontColor=#FFFFFF;" parent="WIyWlLk6GJQsqaUBKTNV-1" vertex="1">
          <mxGeometry x="550" y="140" width="100" height="40" as="geometry" />
        </mxCell>
        <mxCell id="B3d_4BNv6bFsKflRq1dp-8" value="" style="endArrow=block;html=1;rounded=0;endFill=0;entryX=1;entryY=0.5;entryDx=0;entryDy=0;exitX=0;exitY=0.5;exitDx=0;exitDy=0;labelBackgroundColor=none;strokeColor=#23445D;fontColor=default;" parent="WIyWlLk6GJQsqaUBKTNV-1" source="WZA_W1-3168fjfzmkXRs-43" target="WIyWlLk6GJQsqaUBKTNV-10" edge="1">
          <mxGeometry relative="1" as="geometry">
            <mxPoint x="459" y="729.5500000000001" as="sourcePoint" />
            <mxPoint x="379" y="579.5500000000001" as="targetPoint" />
          </mxGeometry>
        </mxCell>
        <mxCell id="B3d_4BNv6bFsKflRq1dp-9" value="si" style="edgeLabel;resizable=0;html=1;align=center;verticalAlign=middle;labelBackgroundColor=none;fontColor=#FFFFFF;" parent="B3d_4BNv6bFsKflRq1dp-8" connectable="0" vertex="1">
          <mxGeometry relative="1" as="geometry">
            <mxPoint x="20" as="offset" />
          </mxGeometry>
        </mxCell>
        <mxCell id="B3d_4BNv6bFsKflRq1dp-21" value="" style="endArrow=block;html=1;rounded=0;endFill=0;exitX=1;exitY=0.5;exitDx=0;exitDy=0;entryX=0.5;entryY=0;entryDx=0;entryDy=0;labelBackgroundColor=none;strokeColor=#23445D;fontColor=default;" parent="WIyWlLk6GJQsqaUBKTNV-1" source="WIyWlLk6GJQsqaUBKTNV-6" target="B3d_4BNv6bFsKflRq1dp-0" edge="1">
          <mxGeometry relative="1" as="geometry">
            <mxPoint x="384.99999999999994" y="125.26999999999998" as="sourcePoint" />
            <mxPoint x="431.6083608490566" y="125.14593160377365" as="targetPoint" />
            <Array as="points">
              <mxPoint x="430" y="190" />
              <mxPoint x="490" y="190" />
            </Array>
          </mxGeometry>
        </mxCell>
        <mxCell id="B3d_4BNv6bFsKflRq1dp-22" value="no" style="edgeLabel;resizable=0;html=1;align=center;verticalAlign=middle;labelBackgroundColor=none;fontColor=#FFFFFF;" parent="B3d_4BNv6bFsKflRq1dp-21" connectable="0" vertex="1">
          <mxGeometry relative="1" as="geometry">
            <mxPoint x="-32" as="offset" />
          </mxGeometry>
        </mxCell>
        <mxCell id="B3d_4BNv6bFsKflRq1dp-26" value="" style="endArrow=block;html=1;rounded=0;endFill=0;entryX=0;entryY=0.5;entryDx=0;entryDy=0;exitX=0.5;exitY=1;exitDx=0;exitDy=0;labelBackgroundColor=none;strokeColor=#23445D;fontColor=default;" parent="WIyWlLk6GJQsqaUBKTNV-1" source="B3d_4BNv6bFsKflRq1dp-0" target="B3d_4BNv6bFsKflRq1dp-1" edge="1">
          <mxGeometry relative="1" as="geometry">
            <mxPoint x="541.4300000000002" y="125" as="sourcePoint" />
            <mxPoint x="570.43" y="60" as="targetPoint" />
            <Array as="points">
              <mxPoint x="490" y="320" />
            </Array>
          </mxGeometry>
        </mxCell>
        <mxCell id="B3d_4BNv6bFsKflRq1dp-27" value="no" style="edgeLabel;resizable=0;html=1;align=center;verticalAlign=middle;labelBackgroundColor=none;fontColor=#FFFFFF;" parent="B3d_4BNv6bFsKflRq1dp-26" connectable="0" vertex="1">
          <mxGeometry relative="1" as="geometry">
            <mxPoint x="-60" as="offset" />
          </mxGeometry>
        </mxCell>
        <mxCell id="B3d_4BNv6bFsKflRq1dp-32" value="" style="endArrow=block;html=1;rounded=0;endFill=0;exitX=0.5;exitY=1;exitDx=0;exitDy=0;entryX=0.5;entryY=0;entryDx=0;entryDy=0;labelBackgroundColor=none;strokeColor=#23445D;fontColor=default;" parent="WIyWlLk6GJQsqaUBKTNV-1" source="WIyWlLk6GJQsqaUBKTNV-10" target="lEryGDBUFIUMpNGzXzRM-45" edge="1">
          <mxGeometry relative="1" as="geometry">
            <mxPoint x="340" y="629.5500000000001" as="sourcePoint" />
            <mxPoint x="345" y="660.0000000000001" as="targetPoint" />
          </mxGeometry>
        </mxCell>
        <mxCell id="B3d_4BNv6bFsKflRq1dp-33" value="20min ~ 60min" style="edgeLabel;resizable=0;html=1;align=center;verticalAlign=middle;labelBackgroundColor=none;fontColor=#FFFFFF;" parent="B3d_4BNv6bFsKflRq1dp-32" connectable="0" vertex="1">
          <mxGeometry relative="1" as="geometry">
            <mxPoint x="1" as="offset" />
          </mxGeometry>
        </mxCell>
        <mxCell id="zSs0rb3qWY8XgjxG6bn7-12" value="&lt;div&gt;linux from&lt;/div&gt;&lt;div&gt;scratch (LFS)&lt;br&gt;&lt;/div&gt;" style="rounded=1;whiteSpace=wrap;html=1;fontSize=12;glass=0;strokeWidth=1;shadow=0;labelBackgroundColor=none;fillColor=#182E3E;strokeColor=#FFFFFF;fontColor=#FFFFFF;" parent="WIyWlLk6GJQsqaUBKTNV-1" vertex="1">
          <mxGeometry x="30" y="470" width="70" height="60" as="geometry" />
        </mxCell>
        <mxCell id="zSs0rb3qWY8XgjxG6bn7-13" value="&lt;div&gt;gentoo&lt;br&gt;&lt;/div&gt;" style="rounded=1;whiteSpace=wrap;html=1;fontSize=12;glass=0;strokeWidth=1;shadow=0;labelBackgroundColor=none;fillColor=#182E3E;strokeColor=#FFFFFF;fontColor=#FFFFFF;" parent="WIyWlLk6GJQsqaUBKTNV-1" vertex="1">
          <mxGeometry x="30" y="610" width="70" height="40" as="geometry" />
        </mxCell>
        <mxCell id="WZA_W1-3168fjfzmkXRs-8" value="&lt;div&gt;Â¿cuanto &amp;nbsp; &lt;br&gt;&lt;/div&gt;&lt;div&gt;quieres &amp;nbsp; aprender?&lt;/div&gt;" style="rhombus;whiteSpace=wrap;html=1;labelBackgroundColor=none;fillColor=#182E3E;strokeColor=#FFFFFF;fontColor=#FFFFFF;" parent="WIyWlLk6GJQsqaUBKTNV-1" vertex="1">
          <mxGeometry x="140" y="510" width="100" height="100" as="geometry" />
        </mxCell>
        <mxCell id="WZA_W1-3168fjfzmkXRs-9" value="void" style="rounded=1;whiteSpace=wrap;html=1;fontSize=12;glass=0;strokeWidth=1;shadow=0;labelBackgroundColor=none;fillColor=#182E3E;strokeColor=#FFFFFF;fontColor=#FFFFFF;" parent="WIyWlLk6GJQsqaUBKTNV-1" vertex="1">
          <mxGeometry x="300" y="950" width="60" height="40" as="geometry" />
        </mxCell>
        <mxCell id="WZA_W1-3168fjfzmkXRs-10" value="arch,nixos" style="rounded=1;whiteSpace=wrap;html=1;fontSize=12;glass=0;strokeWidth=1;shadow=0;labelBackgroundColor=none;fillColor=#182E3E;strokeColor=#FFFFFF;fontColor=#FFFFFF;" parent="WIyWlLk6GJQsqaUBKTNV-1" vertex="1">
          <mxGeometry x="610" y="880" width="60" height="60" as="geometry" />
        </mxCell>
        <mxCell id="WZA_W1-3168fjfzmkXRs-14" value="slackware" style="rounded=1;whiteSpace=wrap;html=1;fontSize=12;glass=0;strokeWidth=1;shadow=0;labelBackgroundColor=none;fillColor=#182E3E;strokeColor=#FFFFFF;fontColor=#FFFFFF;" parent="WIyWlLk6GJQsqaUBKTNV-1" vertex="1">
          <mxGeometry x="170" y="890" width="70" height="50" as="geometry" />
        </mxCell>
        <mxCell id="WZA_W1-3168fjfzmkXRs-15" value="" style="endArrow=block;html=1;rounded=0;endFill=0;entryX=1;entryY=0.5;entryDx=0;entryDy=0;labelBackgroundColor=none;strokeColor=#23445D;fontColor=default;exitX=0.5;exitY=0;exitDx=0;exitDy=0;" parent="WIyWlLk6GJQsqaUBKTNV-1" source="WZA_W1-3168fjfzmkXRs-8" target="zSs0rb3qWY8XgjxG6bn7-12" edge="1">
          <mxGeometry relative="1" as="geometry">
            <mxPoint x="190" y="500" as="sourcePoint" />
            <mxPoint x="170" y="564.5500000000001" as="targetPoint" />
            <Array as="points">
              <mxPoint x="190" y="500" />
            </Array>
          </mxGeometry>
        </mxCell>
        <mxCell id="WZA_W1-3168fjfzmkXRs-16" value="demasiado" style="edgeLabel;resizable=0;html=1;align=center;verticalAlign=middle;labelBackgroundColor=none;fontColor=#FFFFFF;" parent="WZA_W1-3168fjfzmkXRs-15" connectable="0" vertex="1">
          <mxGeometry relative="1" as="geometry">
            <mxPoint x="5" as="offset" />
          </mxGeometry>
        </mxCell>
        <mxCell id="WZA_W1-3168fjfzmkXRs-30" value="alpine,chimera Linux, kiss linux" style="rounded=1;whiteSpace=wrap;html=1;fontSize=12;glass=0;strokeWidth=1;shadow=0;labelBackgroundColor=none;fillColor=#182E3E;strokeColor=#FFFFFF;fontColor=#FFFFFF;" parent="WIyWlLk6GJQsqaUBKTNV-1" vertex="1">
          <mxGeometry x="350" y="890" width="100" height="50" as="geometry" />
        </mxCell>
        <mxCell id="WZA_W1-3168fjfzmkXRs-33" value="linuxMint, " style="rounded=1;whiteSpace=wrap;html=1;fontSize=12;glass=0;strokeWidth=1;shadow=0;labelBackgroundColor=none;fillColor=#182E3E;strokeColor=#FFFFFF;fontColor=#FFFFFF;" parent="WIyWlLk6GJQsqaUBKTNV-1" vertex="1">
          <mxGeometry x="20" y="260" width="80" height="40" as="geometry" />
        </mxCell>
        <mxCell id="WZA_W1-3168fjfzmkXRs-34" value="conoces sobre sistemas unix" style="rhombus;whiteSpace=wrap;html=1;shadow=0;fontFamily=Helvetica;fontSize=12;align=center;strokeWidth=1;spacing=6;spacingTop=-4;labelBackgroundColor=none;fillColor=#182E3E;strokeColor=#FFFFFF;fontColor=#FFFFFF;" parent="WIyWlLk6GJQsqaUBKTNV-1" vertex="1">
          <mxGeometry x="280" y="320" width="120" height="120" as="geometry" />
        </mxCell>
        <mxCell id="WZA_W1-3168fjfzmkXRs-35" value="" style="endArrow=block;html=1;rounded=0;endFill=0;entryX=0;entryY=0.5;entryDx=0;entryDy=0;exitX=1;exitY=0.5;exitDx=0;exitDy=0;labelBackgroundColor=none;strokeColor=#23445D;fontColor=default;" parent="WIyWlLk6GJQsqaUBKTNV-1" source="WZA_W1-3168fjfzmkXRs-34" target="WZA_W1-3168fjfzmkXRs-37" edge="1">
          <mxGeometry relative="1" as="geometry">
            <mxPoint x="380" y="424.32" as="sourcePoint" />
            <mxPoint x="420" y="424.32" as="targetPoint" />
            <Array as="points">
              <mxPoint x="420" y="380" />
              <mxPoint x="420" y="440" />
            </Array>
          </mxGeometry>
        </mxCell>
        <mxCell id="WZA_W1-3168fjfzmkXRs-36" value="si" style="edgeLabel;resizable=0;html=1;align=center;verticalAlign=middle;labelBackgroundColor=none;fontColor=#FFFFFF;" parent="WZA_W1-3168fjfzmkXRs-35" connectable="0" vertex="1">
          <mxGeometry relative="1" as="geometry">
            <mxPoint x="-10" y="-35" as="offset" />
          </mxGeometry>
        </mxCell>
        <mxCell id="WZA_W1-3168fjfzmkXRs-37" value="fsf certified" style="rhombus;whiteSpace=wrap;html=1;labelBackgroundColor=none;fillColor=#182E3E;strokeColor=#FFFFFF;fontColor=#FFFFFF;" parent="WIyWlLk6GJQsqaUBKTNV-1" vertex="1">
          <mxGeometry x="450" y="390" width="100" height="100" as="geometry" />
        </mxCell>
        <mxCell id="nK3E73L1SUcMTksV8uDe-0" value="" style="edgeStyle=orthogonalEdgeStyle;rounded=0;orthogonalLoop=1;jettySize=auto;html=1;" parent="WIyWlLk6GJQsqaUBKTNV-1" source="WZA_W1-3168fjfzmkXRs-38" target="WZA_W1-3168fjfzmkXRs-76" edge="1">
          <mxGeometry relative="1" as="geometry" />
        </mxCell>
        <mxCell id="WZA_W1-3168fjfzmkXRs-38" value="preconfigurado" style="rhombus;whiteSpace=wrap;html=1;labelBackgroundColor=none;fillColor=#182E3E;strokeColor=#FFFFFF;fontColor=#FFFFFF;" parent="WIyWlLk6GJQsqaUBKTNV-1" vertex="1">
          <mxGeometry x="530" y="330" width="120" height="100" as="geometry" />
        </mxCell>
        <mxCell id="WZA_W1-3168fjfzmkXRs-40" value="" style="endArrow=block;html=1;rounded=0;endFill=0;exitX=0.5;exitY=1;exitDx=0;exitDy=0;entryX=0.5;entryY=0;entryDx=0;entryDy=0;labelBackgroundColor=none;strokeColor=#23445D;fontColor=default;" parent="WIyWlLk6GJQsqaUBKTNV-1" source="WZA_W1-3168fjfzmkXRs-37" target="WZA_W1-3168fjfzmkXRs-43" edge="1">
          <mxGeometry relative="1" as="geometry">
            <mxPoint x="477.27" y="467.05" as="sourcePoint" />
            <mxPoint x="480" y="517.5500000000001" as="targetPoint" />
          </mxGeometry>
        </mxCell>
        <mxCell id="WZA_W1-3168fjfzmkXRs-41" value="no" style="edgeLabel;resizable=0;html=1;align=center;verticalAlign=middle;labelBackgroundColor=none;fontColor=#FFFFFF;" parent="WZA_W1-3168fjfzmkXRs-40" connectable="0" vertex="1">
          <mxGeometry relative="1" as="geometry">
            <mxPoint y="-5" as="offset" />
          </mxGeometry>
        </mxCell>
        <mxCell id="WZA_W1-3168fjfzmkXRs-43" value="linux kernel" style="rhombus;whiteSpace=wrap;html=1;labelBackgroundColor=none;fillColor=#182E3E;strokeColor=#FFFFFF;fontColor=#FFFFFF;" parent="WIyWlLk6GJQsqaUBKTNV-1" vertex="1">
          <mxGeometry x="460" y="520" width="80" height="80" as="geometry" />
        </mxCell>
        <mxCell id="WZA_W1-3168fjfzmkXRs-44" value="" style="endArrow=block;html=1;rounded=0;endFill=0;exitX=0.5;exitY=0;exitDx=0;exitDy=0;labelBackgroundColor=none;strokeColor=#23445D;fontColor=default;entryX=0;entryY=0.5;entryDx=0;entryDy=0;" parent="WIyWlLk6GJQsqaUBKTNV-1" source="WZA_W1-3168fjfzmkXRs-37" target="WZA_W1-3168fjfzmkXRs-38" edge="1">
          <mxGeometry relative="1" as="geometry">
            <mxPoint x="521.4300000000001" y="424.15000000000003" as="sourcePoint" />
            <mxPoint x="530" y="380" as="targetPoint" />
            <Array as="points">
              <mxPoint x="500" y="380" />
            </Array>
          </mxGeometry>
        </mxCell>
        <mxCell id="WZA_W1-3168fjfzmkXRs-45" value="si" style="edgeLabel;resizable=0;html=1;align=center;verticalAlign=middle;labelBackgroundColor=none;fontColor=#FFFFFF;" parent="WZA_W1-3168fjfzmkXRs-44" connectable="0" vertex="1">
          <mxGeometry relative="1" as="geometry">
            <mxPoint x="-11" as="offset" />
          </mxGeometry>
        </mxCell>
        <mxCell id="WZA_W1-3168fjfzmkXRs-46" value="" style="endArrow=block;html=1;rounded=0;endFill=0;entryX=0;entryY=0.5;entryDx=0;entryDy=0;labelBackgroundColor=none;strokeColor=#23445D;fontColor=default;exitX=1;exitY=0.5;exitDx=0;exitDy=0;" parent="WIyWlLk6GJQsqaUBKTNV-1" source="WZA_W1-3168fjfzmkXRs-43" target="WZA_W1-3168fjfzmkXRs-63" edge="1">
          <mxGeometry relative="1" as="geometry">
            <mxPoint x="550" y="569.5500000000001" as="sourcePoint" />
            <mxPoint x="580" y="559.5500000000001" as="targetPoint" />
            <Array as="points">
              <mxPoint x="560" y="560" />
              <mxPoint x="560" y="600" />
            </Array>
          </mxGeometry>
        </mxCell>
        <mxCell id="WZA_W1-3168fjfzmkXRs-47" value="no" style="edgeLabel;resizable=0;html=1;align=center;verticalAlign=middle;labelBackgroundColor=none;fontColor=#FFFFFF;" parent="WZA_W1-3168fjfzmkXRs-46" connectable="0" vertex="1">
          <mxGeometry relative="1" as="geometry">
            <mxPoint x="-10" y="-20" as="offset" />
          </mxGeometry>
        </mxCell>
        <mxCell id="WZA_W1-3168fjfzmkXRs-48" value="OpenBSD" style="rounded=1;whiteSpace=wrap;html=1;fontSize=12;glass=0;strokeWidth=1;shadow=0;labelBackgroundColor=none;fillColor=#182E3E;strokeColor=#FFFFFF;fontColor=#FFFFFF;" parent="WIyWlLk6GJQsqaUBKTNV-1" vertex="1">
          <mxGeometry x="760" y="630" width="60" height="40" as="geometry" />
        </mxCell>
        <mxCell id="WZA_W1-3168fjfzmkXRs-59" value="" style="endArrow=block;html=1;rounded=0;endFill=0;exitX=0;exitY=0.5;exitDx=0;exitDy=0;labelBackgroundColor=none;strokeColor=#23445D;fontColor=default;entryX=1;entryY=0.5;entryDx=0;entryDy=0;" parent="WIyWlLk6GJQsqaUBKTNV-1" source="lEryGDBUFIUMpNGzXzRM-29" target="WZA_W1-3168fjfzmkXRs-33" edge="1">
          <mxGeometry relative="1" as="geometry">
            <mxPoint x="141.25" y="304.54999999999995" as="sourcePoint" />
            <mxPoint x="70" y="249.55" as="targetPoint" />
            <Array as="points">
              <mxPoint x="130" y="290" />
              <mxPoint x="130" y="280" />
            </Array>
          </mxGeometry>
        </mxCell>
        <mxCell id="WZA_W1-3168fjfzmkXRs-60" value="si" style="edgeLabel;resizable=0;html=1;align=center;verticalAlign=middle;labelBackgroundColor=none;fontColor=#FFFFFF;" parent="WZA_W1-3168fjfzmkXRs-59" connectable="0" vertex="1">
          <mxGeometry relative="1" as="geometry">
            <mxPoint x="3" y="10" as="offset" />
          </mxGeometry>
        </mxCell>
        <mxCell id="WZA_W1-3168fjfzmkXRs-61" value="" style="endArrow=block;html=1;rounded=0;endFill=0;exitX=0.5;exitY=1;exitDx=0;exitDy=0;entryX=0.5;entryY=0;entryDx=0;entryDy=0;labelBackgroundColor=none;strokeColor=#23445D;fontColor=default;" parent="WIyWlLk6GJQsqaUBKTNV-1" source="WIyWlLk6GJQsqaUBKTNV-6" target="WZA_W1-3168fjfzmkXRs-34" edge="1">
          <mxGeometry relative="1" as="geometry">
            <mxPoint x="400" y="180" as="sourcePoint" />
            <mxPoint x="446.6083608490567" y="179.87593160377367" as="targetPoint" />
          </mxGeometry>
        </mxCell>
        <mxCell id="WZA_W1-3168fjfzmkXRs-62" value="si" style="edgeLabel;resizable=0;html=1;align=center;verticalAlign=middle;labelBackgroundColor=none;fontColor=#FFFFFF;" parent="WZA_W1-3168fjfzmkXRs-61" connectable="0" vertex="1">
          <mxGeometry relative="1" as="geometry">
            <mxPoint y="-15" as="offset" />
          </mxGeometry>
        </mxCell>
        <mxCell id="WZA_W1-3168fjfzmkXRs-63" value="minimalista" style="rhombus;whiteSpace=wrap;html=1;labelBackgroundColor=none;fillColor=#182E3E;strokeColor=#FFFFFF;fontColor=#FFFFFF;" parent="WIyWlLk6GJQsqaUBKTNV-1" vertex="1">
          <mxGeometry x="580" y="560" width="80" height="80" as="geometry" />
        </mxCell>
        <mxCell id="WZA_W1-3168fjfzmkXRs-67" value="" style="endArrow=block;html=1;rounded=0;endFill=0;exitX=0.5;exitY=1;exitDx=0;exitDy=0;entryX=0;entryY=0.5;entryDx=0;entryDy=0;labelBackgroundColor=none;strokeColor=#23445D;fontColor=default;" parent="WIyWlLk6GJQsqaUBKTNV-1" source="WZA_W1-3168fjfzmkXRs-63" target="WZA_W1-3168fjfzmkXRs-48" edge="1">
          <mxGeometry relative="1" as="geometry">
            <mxPoint x="660" y="589.5500000000001" as="sourcePoint" />
            <mxPoint x="760" y="639.5500000000001" as="targetPoint" />
            <Array as="points">
              <mxPoint x="620" y="650" />
            </Array>
          </mxGeometry>
        </mxCell>
        <mxCell id="WZA_W1-3168fjfzmkXRs-68" value="si" style="edgeLabel;resizable=0;html=1;align=center;verticalAlign=middle;labelBackgroundColor=none;fontColor=#FFFFFF;" parent="WZA_W1-3168fjfzmkXRs-67" connectable="0" vertex="1">
          <mxGeometry relative="1" as="geometry">
            <mxPoint x="-15" as="offset" />
          </mxGeometry>
        </mxCell>
        <mxCell id="WZA_W1-3168fjfzmkXRs-70" value="devuan" style="rounded=1;whiteSpace=wrap;html=1;fontSize=12;glass=0;strokeWidth=1;shadow=0;labelBackgroundColor=none;fillColor=#182E3E;strokeColor=#FFFFFF;fontColor=#FFFFFF;" parent="WIyWlLk6GJQsqaUBKTNV-1" vertex="1">
          <mxGeometry x="50" y="900" width="60" height="50" as="geometry" />
        </mxCell>
        <mxCell id="WZA_W1-3168fjfzmkXRs-73" value="" style="endArrow=block;html=1;rounded=0;endFill=0;entryX=0.5;entryY=0;entryDx=0;entryDy=0;labelBackgroundColor=none;strokeColor=#23445D;fontColor=default;exitX=0.5;exitY=1;exitDx=0;exitDy=0;" parent="WIyWlLk6GJQsqaUBKTNV-1" source="WZA_W1-3168fjfzmkXRs-38" target="WZA_W1-3168fjfzmkXRs-76" edge="1">
          <mxGeometry relative="1" as="geometry">
            <mxPoint x="607.5" y="419.55" as="sourcePoint" />
            <mxPoint x="607.5" y="469.09999999999997" as="targetPoint" />
          </mxGeometry>
        </mxCell>
        <mxCell id="WZA_W1-3168fjfzmkXRs-74" value="no" style="edgeLabel;resizable=0;html=1;align=center;verticalAlign=middle;labelBackgroundColor=none;fontColor=#FFFFFF;" parent="WZA_W1-3168fjfzmkXRs-73" connectable="0" vertex="1">
          <mxGeometry relative="1" as="geometry">
            <mxPoint y="-15" as="offset" />
          </mxGeometry>
        </mxCell>
        <mxCell id="WZA_W1-3168fjfzmkXRs-75" value="trisquel,pureOS" style="rounded=1;whiteSpace=wrap;html=1;fontSize=12;glass=0;strokeWidth=1;shadow=0;labelBackgroundColor=none;fillColor=#182E3E;strokeColor=#FFFFFF;fontColor=#FFFFFF;" parent="WIyWlLk6GJQsqaUBKTNV-1" vertex="1">
          <mxGeometry x="730" y="360" width="90" height="40" as="geometry" />
        </mxCell>
        <mxCell id="WZA_W1-3168fjfzmkXRs-76" value="al dia" style="rhombus;whiteSpace=wrap;html=1;labelBackgroundColor=none;fillColor=#182E3E;strokeColor=#FFFFFF;fontColor=#FFFFFF;" parent="WIyWlLk6GJQsqaUBKTNV-1" vertex="1">
          <mxGeometry x="550" y="470" width="80" height="80" as="geometry" />
        </mxCell>
        <mxCell id="WZA_W1-3168fjfzmkXRs-78" value="" style="endArrow=block;html=1;rounded=0;endFill=0;entryX=0;entryY=0.5;entryDx=0;entryDy=0;labelBackgroundColor=none;strokeColor=#23445D;fontColor=default;exitX=1;exitY=0.5;exitDx=0;exitDy=0;" parent="WIyWlLk6GJQsqaUBKTNV-1" source="WZA_W1-3168fjfzmkXRs-38" target="WZA_W1-3168fjfzmkXRs-75" edge="1">
          <mxGeometry relative="1" as="geometry">
            <mxPoint x="620" y="380" as="sourcePoint" />
            <mxPoint x="710" y="434.15000000000003" as="targetPoint" />
            <Array as="points" />
          </mxGeometry>
        </mxCell>
        <mxCell id="WZA_W1-3168fjfzmkXRs-79" value="si" style="edgeLabel;resizable=0;html=1;align=center;verticalAlign=middle;labelBackgroundColor=none;fontColor=#FFFFFF;" parent="WZA_W1-3168fjfzmkXRs-78" connectable="0" vertex="1">
          <mxGeometry relative="1" as="geometry">
            <mxPoint x="-30" as="offset" />
          </mxGeometry>
        </mxCell>
        <mxCell id="WZA_W1-3168fjfzmkXRs-91" value="FreeBSD" style="rounded=1;whiteSpace=wrap;html=1;fontSize=12;glass=0;strokeWidth=1;shadow=0;labelBackgroundColor=none;fillColor=#182E3E;strokeColor=#FFFFFF;fontColor=#FFFFFF;" parent="WIyWlLk6GJQsqaUBKTNV-1" vertex="1">
          <mxGeometry x="760" y="580" width="60" height="40" as="geometry" />
        </mxCell>
        <mxCell id="WZA_W1-3168fjfzmkXRs-92" value="" style="endArrow=block;html=1;rounded=0;endFill=0;exitX=1;exitY=0.5;exitDx=0;exitDy=0;entryX=0;entryY=0.5;entryDx=0;entryDy=0;labelBackgroundColor=none;strokeColor=#23445D;fontColor=default;" parent="WIyWlLk6GJQsqaUBKTNV-1" source="WZA_W1-3168fjfzmkXRs-63" target="WZA_W1-3168fjfzmkXRs-91" edge="1">
          <mxGeometry relative="1" as="geometry">
            <mxPoint x="680" y="584.07" as="sourcePoint" />
            <mxPoint x="740" y="579.5500000000001" as="targetPoint" />
          </mxGeometry>
        </mxCell>
        <mxCell id="WZA_W1-3168fjfzmkXRs-93" value="no" style="edgeLabel;resizable=0;html=1;align=center;verticalAlign=middle;labelBackgroundColor=none;fontColor=#FFFFFF;" parent="WZA_W1-3168fjfzmkXRs-92" connectable="0" vertex="1">
          <mxGeometry relative="1" as="geometry">
            <mxPoint x="-40" as="offset" />
          </mxGeometry>
        </mxCell>
        <mxCell id="WZA_W1-3168fjfzmkXRs-98" value="" style="endArrow=block;html=1;rounded=0;endFill=0;exitX=1;exitY=0.5;exitDx=0;exitDy=0;entryX=0;entryY=0.5;entryDx=0;entryDy=0;labelBackgroundColor=none;strokeColor=#23445D;fontColor=default;" parent="WIyWlLk6GJQsqaUBKTNV-1" source="WZA_W1-3168fjfzmkXRs-76" target="WZA_W1-3168fjfzmkXRs-102" edge="1">
          <mxGeometry relative="1" as="geometry">
            <mxPoint x="640" y="509.07000000000005" as="sourcePoint" />
            <mxPoint x="660" y="439.55" as="targetPoint" />
            <Array as="points">
              <mxPoint x="650" y="510" />
              <mxPoint x="650" y="450" />
            </Array>
          </mxGeometry>
        </mxCell>
        <mxCell id="WZA_W1-3168fjfzmkXRs-99" value="no" style="edgeLabel;resizable=0;html=1;align=center;verticalAlign=middle;labelBackgroundColor=none;fontColor=#FFFFFF;" parent="WZA_W1-3168fjfzmkXRs-98" connectable="0" vertex="1">
          <mxGeometry relative="1" as="geometry">
            <mxPoint x="-10" y="50" as="offset" />
          </mxGeometry>
        </mxCell>
        <mxCell id="WZA_W1-3168fjfzmkXRs-100" value="" style="endArrow=block;html=1;rounded=0;endFill=0;exitX=0.5;exitY=1;exitDx=0;exitDy=0;labelBackgroundColor=none;strokeColor=#23445D;fontColor=default;entryX=0;entryY=0.5;entryDx=0;entryDy=0;" parent="WIyWlLk6GJQsqaUBKTNV-1" source="WZA_W1-3168fjfzmkXRs-76" target="WZA_W1-3168fjfzmkXRs-104" edge="1">
          <mxGeometry relative="1" as="geometry">
            <mxPoint x="630" y="540.0300000000001" as="sourcePoint" />
            <mxPoint x="710" y="492" as="targetPoint" />
            <Array as="points">
              <mxPoint x="670" y="550" />
              <mxPoint x="670" y="520" />
            </Array>
          </mxGeometry>
        </mxCell>
        <mxCell id="WZA_W1-3168fjfzmkXRs-101" value="si" style="edgeLabel;resizable=0;html=1;align=center;verticalAlign=middle;labelBackgroundColor=none;fontColor=#FFFFFF;" parent="WZA_W1-3168fjfzmkXRs-100" connectable="0" vertex="1">
          <mxGeometry relative="1" as="geometry">
            <mxPoint x="-62" y="4" as="offset" />
          </mxGeometry>
        </mxCell>
        <mxCell id="WZA_W1-3168fjfzmkXRs-102" value="hyperbola,Guix" style="rounded=1;whiteSpace=wrap;html=1;fontSize=12;glass=0;strokeWidth=1;shadow=0;labelBackgroundColor=none;fillColor=#182E3E;strokeColor=#FFFFFF;fontColor=#FFFFFF;" parent="WIyWlLk6GJQsqaUBKTNV-1" vertex="1">
          <mxGeometry x="730" y="430" width="90" height="40" as="geometry" />
        </mxCell>
        <mxCell id="WZA_W1-3168fjfzmkXRs-104" value="parabola" style="rounded=1;whiteSpace=wrap;html=1;fontSize=12;glass=0;strokeWidth=1;shadow=0;labelBackgroundColor=none;fillColor=#182E3E;strokeColor=#FFFFFF;fontColor=#FFFFFF;" parent="WIyWlLk6GJQsqaUBKTNV-1" vertex="1">
          <mxGeometry x="730" y="500" width="90" height="40" as="geometry" />
        </mxCell>
        <mxCell id="WZA_W1-3168fjfzmkXRs-105" value="al dia" style="rhombus;whiteSpace=wrap;html=1;labelBackgroundColor=none;fillColor=#182E3E;strokeColor=#FFFFFF;fontColor=#FFFFFF;" parent="WIyWlLk6GJQsqaUBKTNV-1" vertex="1">
          <mxGeometry x="450" y="660" width="80" height="80" as="geometry" />
        </mxCell>
        <mxCell id="WZA_W1-3168fjfzmkXRs-110" value="" style="endArrow=block;html=1;rounded=0;endFill=0;exitX=1;exitY=0.5;exitDx=0;exitDy=0;entryX=0;entryY=0.5;entryDx=0;entryDy=0;labelBackgroundColor=none;strokeColor=#23445D;fontColor=default;" parent="WIyWlLk6GJQsqaUBKTNV-1" source="lEryGDBUFIUMpNGzXzRM-45" target="WZA_W1-3168fjfzmkXRs-105" edge="1">
          <mxGeometry relative="1" as="geometry">
            <mxPoint x="390" y="700.0000000000001" as="sourcePoint" />
            <mxPoint x="540" y="729.5500000000001" as="targetPoint" />
          </mxGeometry>
        </mxCell>
        <mxCell id="WZA_W1-3168fjfzmkXRs-111" value="si" style="edgeLabel;resizable=0;html=1;align=center;verticalAlign=middle;labelBackgroundColor=none;fontColor=#FFFFFF;" parent="WZA_W1-3168fjfzmkXRs-110" connectable="0" vertex="1">
          <mxGeometry relative="1" as="geometry" />
        </mxCell>
        <mxCell id="WZA_W1-3168fjfzmkXRs-112" value="preconfigurado" style="rhombus;whiteSpace=wrap;html=1;labelBackgroundColor=none;fillColor=#182E3E;strokeColor=#FFFFFF;fontColor=#FFFFFF;" parent="WIyWlLk6GJQsqaUBKTNV-1" vertex="1">
          <mxGeometry x="440" y="790" width="100" height="90" as="geometry" />
        </mxCell>
        <mxCell id="WZA_W1-3168fjfzmkXRs-113" value="openSUSE, Fedora" style="rounded=1;whiteSpace=wrap;html=1;fontSize=12;glass=0;strokeWidth=1;shadow=0;labelBackgroundColor=none;fillColor=#182E3E;strokeColor=#FFFFFF;fontColor=#FFFFFF;" parent="WIyWlLk6GJQsqaUBKTNV-1" vertex="1">
          <mxGeometry x="730" y="700" width="90" height="40" as="geometry" />
        </mxCell>
        <mxCell id="WZA_W1-3168fjfzmkXRs-125" value="&lt;div&gt;glibc&lt;br&gt;&lt;/div&gt;" style="rhombus;whiteSpace=wrap;html=1;direction=south;labelBackgroundColor=none;fillColor=#182E3E;strokeColor=#FFFFFF;fontColor=#FFFFFF;" parent="WIyWlLk6GJQsqaUBKTNV-1" vertex="1">
          <mxGeometry x="160" y="780" width="80" height="80" as="geometry" />
        </mxCell>
        <mxCell id="0XqaIxvMcVvcDSaRn46s-0" value="" style="endArrow=block;html=1;rounded=0;endFill=0;exitX=0.5;exitY=1;exitDx=0;exitDy=0;labelBackgroundColor=none;strokeColor=#23445D;fontColor=default;" parent="WIyWlLk6GJQsqaUBKTNV-1" source="WZA_W1-3168fjfzmkXRs-105" target="WZA_W1-3168fjfzmkXRs-112" edge="1">
          <mxGeometry relative="1" as="geometry">
            <mxPoint x="530" y="739.5500000000001" as="sourcePoint" />
            <mxPoint x="590" y="739.5500000000001" as="targetPoint" />
          </mxGeometry>
        </mxCell>
        <mxCell id="0XqaIxvMcVvcDSaRn46s-1" value="si" style="edgeLabel;resizable=0;html=1;align=center;verticalAlign=middle;labelBackgroundColor=none;fontColor=#FFFFFF;" parent="0XqaIxvMcVvcDSaRn46s-0" connectable="0" vertex="1">
          <mxGeometry relative="1" as="geometry">
            <mxPoint y="-10" as="offset" />
          </mxGeometry>
        </mxCell>
        <mxCell id="0XqaIxvMcVvcDSaRn46s-2" value="" style="endArrow=block;html=1;rounded=0;endFill=0;exitX=1;exitY=0.5;exitDx=0;exitDy=0;entryX=0;entryY=0.5;entryDx=0;entryDy=0;labelBackgroundColor=none;strokeColor=#23445D;fontColor=default;" parent="WIyWlLk6GJQsqaUBKTNV-1" source="WZA_W1-3168fjfzmkXRs-105" target="0XqaIxvMcVvcDSaRn46s-59" edge="1">
          <mxGeometry relative="1" as="geometry">
            <mxPoint x="540" y="719.5500000000001" as="sourcePoint" />
            <mxPoint x="575.5899999999999" y="699.72" as="targetPoint" />
          </mxGeometry>
        </mxCell>
        <mxCell id="0XqaIxvMcVvcDSaRn46s-3" value="no" style="edgeLabel;resizable=0;html=1;align=center;verticalAlign=middle;labelBackgroundColor=none;fontColor=#FFFFFF;" parent="0XqaIxvMcVvcDSaRn46s-2" connectable="0" vertex="1">
          <mxGeometry relative="1" as="geometry">
            <mxPoint x="-15" as="offset" />
          </mxGeometry>
        </mxCell>
        <mxCell id="0XqaIxvMcVvcDSaRn46s-4" value="" style="endArrow=block;html=1;rounded=0;endFill=0;exitX=1;exitY=0.5;exitDx=0;exitDy=0;entryX=0;entryY=0.5;entryDx=0;entryDy=0;labelBackgroundColor=none;strokeColor=#23445D;fontColor=default;" parent="WIyWlLk6GJQsqaUBKTNV-1" source="0XqaIxvMcVvcDSaRn46s-59" target="WZA_W1-3168fjfzmkXRs-113" edge="1">
          <mxGeometry relative="1" as="geometry">
            <mxPoint x="670" y="699.5500000000001" as="sourcePoint" />
            <mxPoint x="720" y="699.5500000000001" as="targetPoint" />
            <Array as="points">
              <mxPoint x="690" y="700" />
              <mxPoint x="690" y="720" />
            </Array>
          </mxGeometry>
        </mxCell>
        <mxCell id="0XqaIxvMcVvcDSaRn46s-5" value="no" style="edgeLabel;resizable=0;html=1;align=center;verticalAlign=middle;labelBackgroundColor=none;fontColor=#FFFFFF;" parent="0XqaIxvMcVvcDSaRn46s-4" connectable="0" vertex="1">
          <mxGeometry relative="1" as="geometry">
            <mxPoint x="-5" y="-10" as="offset" />
          </mxGeometry>
        </mxCell>
        <mxCell id="0XqaIxvMcVvcDSaRn46s-13" value="" style="endArrow=block;html=1;rounded=0;endFill=0;exitX=1;exitY=0.5;exitDx=0;exitDy=0;entryX=0;entryY=0.5;entryDx=0;entryDy=0;labelBackgroundColor=none;strokeColor=#23445D;fontColor=default;" parent="WIyWlLk6GJQsqaUBKTNV-1" source="WZA_W1-3168fjfzmkXRs-112" target="WIyWlLk6GJQsqaUBKTNV-11" edge="1">
          <mxGeometry relative="1" as="geometry">
            <mxPoint x="570" y="759.5500000000001" as="sourcePoint" />
            <mxPoint x="560" y="769.5500000000001" as="targetPoint" />
          </mxGeometry>
        </mxCell>
        <mxCell id="0XqaIxvMcVvcDSaRn46s-14" value="si" style="edgeLabel;resizable=0;html=1;align=center;verticalAlign=middle;labelBackgroundColor=none;fontColor=#FFFFFF;" parent="0XqaIxvMcVvcDSaRn46s-13" connectable="0" vertex="1">
          <mxGeometry relative="1" as="geometry">
            <mxPoint x="-15" as="offset" />
          </mxGeometry>
        </mxCell>
        <mxCell id="0XqaIxvMcVvcDSaRn46s-20" value="" style="endArrow=block;html=1;rounded=0;endFill=0;exitX=1.017;exitY=0.5;exitDx=0;exitDy=0;entryX=0;entryY=0.5;entryDx=0;entryDy=0;labelBackgroundColor=none;strokeColor=#23445D;fontColor=default;exitPerimeter=0;" parent="WIyWlLk6GJQsqaUBKTNV-1" source="lEryGDBUFIUMpNGzXzRM-43" target="WZA_W1-3168fjfzmkXRs-125" edge="1">
          <mxGeometry relative="1" as="geometry">
            <mxPoint x="205" y="740" as="sourcePoint" />
            <mxPoint x="290" y="779.5500000000001" as="targetPoint" />
          </mxGeometry>
        </mxCell>
        <mxCell id="0XqaIxvMcVvcDSaRn46s-21" value="no" style="edgeLabel;resizable=0;html=1;align=center;verticalAlign=middle;labelBackgroundColor=none;fontColor=#FFFFFF;" parent="0XqaIxvMcVvcDSaRn46s-20" connectable="0" vertex="1">
          <mxGeometry relative="1" as="geometry">
            <mxPoint y="-11" as="offset" />
          </mxGeometry>
        </mxCell>
        <mxCell id="0XqaIxvMcVvcDSaRn46s-22" value="gnu core utils" style="rhombus;whiteSpace=wrap;html=1;direction=south;labelBackgroundColor=none;fillColor=#182E3E;strokeColor=#FFFFFF;fontColor=#FFFFFF;" parent="WIyWlLk6GJQsqaUBKTNV-1" vertex="1">
          <mxGeometry x="280" y="770" width="100" height="100" as="geometry" />
        </mxCell>
        <mxCell id="0XqaIxvMcVvcDSaRn46s-26" value="" style="endArrow=block;html=1;rounded=0;endFill=0;exitX=0.5;exitY=0;exitDx=0;exitDy=0;entryX=0.5;entryY=1;entryDx=0;entryDy=0;labelBackgroundColor=none;strokeColor=#23445D;fontColor=default;" parent="WIyWlLk6GJQsqaUBKTNV-1" source="WZA_W1-3168fjfzmkXRs-125" target="0XqaIxvMcVvcDSaRn46s-22" edge="1">
          <mxGeometry relative="1" as="geometry">
            <mxPoint x="260" y="779.5500000000001" as="sourcePoint" />
            <mxPoint x="259" y="817.5500000000001" as="targetPoint" />
          </mxGeometry>
        </mxCell>
        <mxCell id="0XqaIxvMcVvcDSaRn46s-27" value="no" style="edgeLabel;resizable=0;html=1;align=center;verticalAlign=middle;labelBackgroundColor=none;fontColor=#FFFFFF;" parent="0XqaIxvMcVvcDSaRn46s-26" connectable="0" vertex="1">
          <mxGeometry relative="1" as="geometry" />
        </mxCell>
        <mxCell id="0XqaIxvMcVvcDSaRn46s-31" value="" style="endArrow=block;html=1;rounded=0;endFill=0;exitX=0.5;exitY=0;exitDx=0;exitDy=0;entryX=0.5;entryY=0;entryDx=0;entryDy=0;labelBackgroundColor=none;strokeColor=#23445D;fontColor=default;" parent="WIyWlLk6GJQsqaUBKTNV-1" source="0XqaIxvMcVvcDSaRn46s-22" target="WZA_W1-3168fjfzmkXRs-30" edge="1">
          <mxGeometry relative="1" as="geometry">
            <mxPoint x="380" y="759.5500000000001" as="sourcePoint" />
            <mxPoint x="420" y="759.5500000000001" as="targetPoint" />
            <Array as="points">
              <mxPoint x="400" y="820" />
            </Array>
          </mxGeometry>
        </mxCell>
        <mxCell id="0XqaIxvMcVvcDSaRn46s-32" value="no" style="edgeLabel;resizable=0;html=1;align=center;verticalAlign=middle;labelBackgroundColor=none;fontColor=#FFFFFF;" parent="0XqaIxvMcVvcDSaRn46s-31" connectable="0" vertex="1">
          <mxGeometry relative="1" as="geometry">
            <mxPoint x="-10" y="-25" as="offset" />
          </mxGeometry>
        </mxCell>
        <mxCell id="0XqaIxvMcVvcDSaRn46s-33" value="" style="endArrow=block;html=1;rounded=0;endFill=0;exitX=1;exitY=0.5;exitDx=0;exitDy=0;entryX=0.5;entryY=0;entryDx=0;entryDy=0;labelBackgroundColor=none;strokeColor=#23445D;fontColor=default;" parent="WIyWlLk6GJQsqaUBKTNV-1" source="0XqaIxvMcVvcDSaRn46s-22" target="WZA_W1-3168fjfzmkXRs-9" edge="1">
          <mxGeometry relative="1" as="geometry">
            <mxPoint x="270" y="887.0200000000001" as="sourcePoint" />
            <mxPoint x="310" y="887.0200000000001" as="targetPoint" />
          </mxGeometry>
        </mxCell>
        <mxCell id="0XqaIxvMcVvcDSaRn46s-34" value="si" style="edgeLabel;resizable=0;html=1;align=center;verticalAlign=middle;labelBackgroundColor=none;fontColor=#FFFFFF;" parent="0XqaIxvMcVvcDSaRn46s-33" connectable="0" vertex="1">
          <mxGeometry relative="1" as="geometry">
            <mxPoint y="-30" as="offset" />
          </mxGeometry>
        </mxCell>
        <mxCell id="0XqaIxvMcVvcDSaRn46s-35" value="" style="endArrow=block;html=1;rounded=0;endFill=0;exitX=0.5;exitY=1;exitDx=0;exitDy=0;entryX=0.5;entryY=0;entryDx=0;entryDy=0;labelBackgroundColor=none;strokeColor=#23445D;fontColor=default;" parent="WIyWlLk6GJQsqaUBKTNV-1" source="WZA_W1-3168fjfzmkXRs-125" target="0XqaIxvMcVvcDSaRn46s-39" edge="1">
          <mxGeometry relative="1" as="geometry">
            <mxPoint x="192.185" y="880.8" as="sourcePoint" />
            <mxPoint x="130" y="779.5500000000001" as="targetPoint" />
          </mxGeometry>
        </mxCell>
        <mxCell id="0XqaIxvMcVvcDSaRn46s-36" value="si" style="edgeLabel;resizable=0;html=1;align=center;verticalAlign=middle;labelBackgroundColor=none;fontColor=#FFFFFF;" parent="0XqaIxvMcVvcDSaRn46s-35" connectable="0" vertex="1">
          <mxGeometry relative="1" as="geometry" />
        </mxCell>
        <mxCell id="0XqaIxvMcVvcDSaRn46s-37" value="debian,PopOs" style="rounded=1;whiteSpace=wrap;html=1;fontSize=12;glass=0;strokeWidth=1;shadow=0;labelBackgroundColor=none;fillColor=#182E3E;strokeColor=#FFFFFF;fontColor=#FFFFFF;gradientColor=none;" parent="WIyWlLk6GJQsqaUBKTNV-1" vertex="1">
          <mxGeometry x="730" y="780" width="90" height="40" as="geometry" />
        </mxCell>
        <mxCell id="0XqaIxvMcVvcDSaRn46s-39" value="minimalista" style="rhombus;whiteSpace=wrap;html=1;direction=south;labelBackgroundColor=none;fillColor=#182E3E;strokeColor=#FFFFFF;fontColor=#FFFFFF;" parent="WIyWlLk6GJQsqaUBKTNV-1" vertex="1">
          <mxGeometry x="40" y="780" width="80" height="80" as="geometry" />
        </mxCell>
        <mxCell id="0XqaIxvMcVvcDSaRn46s-40" value="" style="endArrow=block;html=1;rounded=0;endFill=0;entryX=0.5;entryY=0;entryDx=0;entryDy=0;strokeColor=#23445D;labelBackgroundColor=none;fontColor=default;exitX=1;exitY=0.5;exitDx=0;exitDy=0;" parent="WIyWlLk6GJQsqaUBKTNV-1" source="lEryGDBUFIUMpNGzXzRM-0" target="WZA_W1-3168fjfzmkXRs-105" edge="1">
          <mxGeometry relative="1" as="geometry">
            <mxPoint x="226" y="438.55" as="sourcePoint" />
            <mxPoint x="440" y="759.5500000000001" as="targetPoint" />
            <Array as="points">
              <mxPoint x="270" y="430" />
              <mxPoint x="270" y="490" />
              <mxPoint x="420" y="490" />
              <mxPoint x="420" y="620" />
              <mxPoint x="490" y="620" />
            </Array>
          </mxGeometry>
        </mxCell>
        <mxCell id="0XqaIxvMcVvcDSaRn46s-41" value="no" style="edgeLabel;resizable=0;html=1;align=center;verticalAlign=middle;labelBackgroundColor=none;fontColor=#FFFFFF;" parent="0XqaIxvMcVvcDSaRn46s-40" connectable="0" vertex="1">
          <mxGeometry relative="1" as="geometry">
            <mxPoint x="-170" y="-60" as="offset" />
          </mxGeometry>
        </mxCell>
        <mxCell id="0XqaIxvMcVvcDSaRn46s-45" value="" style="endArrow=block;html=1;rounded=0;endFill=0;exitX=1;exitY=0.5;exitDx=0;exitDy=0;entryX=0.5;entryY=0;entryDx=0;entryDy=0;labelBackgroundColor=none;strokeColor=#23445D;fontColor=default;" parent="WIyWlLk6GJQsqaUBKTNV-1" source="0XqaIxvMcVvcDSaRn46s-39" target="WZA_W1-3168fjfzmkXRs-70" edge="1">
          <mxGeometry relative="1" as="geometry">
            <mxPoint x="50.004999999999946" y="887.67" as="sourcePoint" />
            <mxPoint x="75" y="919.5500000000001" as="targetPoint" />
          </mxGeometry>
        </mxCell>
        <mxCell id="0XqaIxvMcVvcDSaRn46s-46" value="no" style="edgeLabel;resizable=0;html=1;align=center;verticalAlign=middle;labelBackgroundColor=none;fontColor=#FFFFFF;" parent="0XqaIxvMcVvcDSaRn46s-45" connectable="0" vertex="1">
          <mxGeometry relative="1" as="geometry" />
        </mxCell>
        <mxCell id="0XqaIxvMcVvcDSaRn46s-51" value="" style="endArrow=block;html=1;rounded=0;endFill=0;exitX=0.5;exitY=1;exitDx=0;exitDy=0;labelBackgroundColor=none;strokeColor=#23445D;fontColor=default;" parent="WIyWlLk6GJQsqaUBKTNV-1" source="lEryGDBUFIUMpNGzXzRM-43" target="WZA_W1-3168fjfzmkXRs-11" edge="1">
          <mxGeometry relative="1" as="geometry">
            <mxPoint x="160" y="700" as="sourcePoint" />
            <mxPoint x="90" y="699.5500000000001" as="targetPoint" />
          </mxGeometry>
        </mxCell>
        <mxCell id="0XqaIxvMcVvcDSaRn46s-52" value="si" style="edgeLabel;resizable=0;html=1;align=center;verticalAlign=middle;labelBackgroundColor=none;fontColor=#FFFFFF;" parent="0XqaIxvMcVvcDSaRn46s-51" connectable="0" vertex="1">
          <mxGeometry relative="1" as="geometry">
            <mxPoint x="25" as="offset" />
          </mxGeometry>
        </mxCell>
        <mxCell id="WZA_W1-3168fjfzmkXRs-11" value="artix" style="rounded=1;whiteSpace=wrap;html=1;fontSize=12;glass=0;strokeWidth=1;shadow=0;labelBackgroundColor=none;fillColor=#182E3E;strokeColor=#FFFFFF;fontColor=#FFFFFF;" parent="WIyWlLk6GJQsqaUBKTNV-1" vertex="1">
          <mxGeometry x="30" y="680" width="60" height="40" as="geometry" />
        </mxCell>
        <mxCell id="0XqaIxvMcVvcDSaRn46s-56" value="" style="endArrow=block;html=1;rounded=0;endFill=0;exitX=0.5;exitY=1;exitDx=0;exitDy=0;entryX=0.433;entryY=0.96;entryDx=0;entryDy=0;entryPerimeter=0;labelBackgroundColor=none;strokeColor=#23445D;fontColor=default;" parent="WIyWlLk6GJQsqaUBKTNV-1" source="0XqaIxvMcVvcDSaRn46s-39" target="WZA_W1-3168fjfzmkXRs-14" edge="1">
          <mxGeometry relative="1" as="geometry">
            <mxPoint x="36.870000000000005" y="868.9200000000001" as="sourcePoint" />
            <mxPoint x="37" y="989.5500000000001" as="targetPoint" />
            <Array as="points">
              <mxPoint x="20" y="820" />
              <mxPoint x="20" y="970" />
              <mxPoint x="200" y="970" />
            </Array>
          </mxGeometry>
        </mxCell>
        <mxCell id="0XqaIxvMcVvcDSaRn46s-57" value="si" style="edgeLabel;resizable=0;html=1;align=center;verticalAlign=middle;labelBackgroundColor=none;fontColor=#FFFFFF;" parent="0XqaIxvMcVvcDSaRn46s-56" connectable="0" vertex="1">
          <mxGeometry relative="1" as="geometry">
            <mxPoint x="-11" y="-150" as="offset" />
          </mxGeometry>
        </mxCell>
        <mxCell id="0XqaIxvMcVvcDSaRn46s-59" value="&lt;div&gt;basado en&amp;nbsp;&lt;/div&gt;&lt;div&gt;debian&lt;/div&gt;" style="rhombus;whiteSpace=wrap;html=1;labelBackgroundColor=none;fillColor=#182E3E;strokeColor=#FFFFFF;fontColor=#FFFFFF;" parent="WIyWlLk6GJQsqaUBKTNV-1" vertex="1">
          <mxGeometry x="580" y="660" width="100" height="80" as="geometry" />
        </mxCell>
        <mxCell id="0XqaIxvMcVvcDSaRn46s-60" value="" style="endArrow=block;html=1;rounded=0;endFill=0;entryX=0;entryY=0.5;entryDx=0;entryDy=0;labelBackgroundColor=none;strokeColor=#23445D;fontColor=default;exitX=0.5;exitY=1;exitDx=0;exitDy=0;" parent="WIyWlLk6GJQsqaUBKTNV-1" source="0XqaIxvMcVvcDSaRn46s-59" target="0XqaIxvMcVvcDSaRn46s-37" edge="1">
          <mxGeometry relative="1" as="geometry">
            <mxPoint x="630" y="750" as="sourcePoint" />
            <mxPoint x="740" y="749.5500000000001" as="targetPoint" />
            <Array as="points">
              <mxPoint x="630" y="800" />
            </Array>
          </mxGeometry>
        </mxCell>
        <mxCell id="0XqaIxvMcVvcDSaRn46s-61" value="si" style="edgeLabel;resizable=0;html=1;align=center;verticalAlign=middle;labelBackgroundColor=none;fontColor=#FFFFFF;" parent="0XqaIxvMcVvcDSaRn46s-60" connectable="0" vertex="1">
          <mxGeometry relative="1" as="geometry">
            <mxPoint x="-20" y="-50" as="offset" />
          </mxGeometry>
        </mxCell>
        <mxCell id="0XqaIxvMcVvcDSaRn46s-62" value="" style="endArrow=block;html=1;rounded=0;endFill=0;exitX=0.5;exitY=1;exitDx=0;exitDy=0;entryX=0;entryY=0.5;entryDx=0;entryDy=0;labelBackgroundColor=none;strokeColor=#23445D;fontColor=default;" parent="WIyWlLk6GJQsqaUBKTNV-1" source="WZA_W1-3168fjfzmkXRs-112" target="WZA_W1-3168fjfzmkXRs-10" edge="1">
          <mxGeometry relative="1" as="geometry">
            <mxPoint x="550" y="919.5500000000001" as="sourcePoint" />
            <mxPoint x="595" y="919.5500000000001" as="targetPoint" />
            <Array as="points">
              <mxPoint x="490" y="910" />
            </Array>
          </mxGeometry>
        </mxCell>
        <mxCell id="0XqaIxvMcVvcDSaRn46s-63" value="no" style="edgeLabel;resizable=0;html=1;align=center;verticalAlign=middle;labelBackgroundColor=none;fontColor=#FFFFFF;" parent="0XqaIxvMcVvcDSaRn46s-62" connectable="0" vertex="1">
          <mxGeometry relative="1" as="geometry">
            <mxPoint x="-45" y="-20" as="offset" />
          </mxGeometry>
        </mxCell>
        <mxCell id="0XqaIxvMcVvcDSaRn46s-64" value="" style="endArrow=block;html=1;rounded=0;endFill=0;entryX=0;entryY=0.5;entryDx=0;entryDy=0;labelBackgroundColor=none;strokeColor=#23445D;fontColor=default;" parent="WIyWlLk6GJQsqaUBKTNV-1" target="WZA_W1-3168fjfzmkXRs-9" edge="1">
          <mxGeometry relative="1" as="geometry">
            <mxPoint x="196" y="970" as="sourcePoint" />
            <mxPoint x="296" y="970.22" as="targetPoint" />
          </mxGeometry>
        </mxCell>
        <mxCell id="0XqaIxvMcVvcDSaRn46s-67" value="" style="endArrow=block;html=1;rounded=0;endFill=0;exitX=0;exitY=0.5;exitDx=0;exitDy=0;entryX=0.5;entryY=0;entryDx=0;entryDy=0;labelBackgroundColor=none;strokeColor=#23445D;fontColor=default;" parent="WIyWlLk6GJQsqaUBKTNV-1" source="lEryGDBUFIUMpNGzXzRM-45" target="lEryGDBUFIUMpNGzXzRM-43" edge="1">
          <mxGeometry relative="1" as="geometry">
            <mxPoint x="300" y="700.0000000000001" as="sourcePoint" />
            <mxPoint x="250" y="700" as="targetPoint" />
          </mxGeometry>
        </mxCell>
        <mxCell id="0XqaIxvMcVvcDSaRn46s-68" value="no" style="edgeLabel;resizable=0;html=1;align=center;verticalAlign=middle;labelBackgroundColor=none;fontColor=#FFFFFF;" parent="0XqaIxvMcVvcDSaRn46s-67" connectable="0" vertex="1">
          <mxGeometry relative="1" as="geometry" />
        </mxCell>
        <mxCell id="lEryGDBUFIUMpNGzXzRM-0" value="parecido a MacOS" style="rhombus;whiteSpace=wrap;html=1;shadow=0;fontFamily=Helvetica;fontSize=12;align=center;strokeWidth=1;spacing=6;spacingTop=-4;labelBackgroundColor=none;fillColor=#182E3E;strokeColor=#FFFFFF;fontColor=#FFFFFF;" parent="WIyWlLk6GJQsqaUBKTNV-1" vertex="1">
          <mxGeometry x="140" y="390" width="100" height="80" as="geometry" />
        </mxCell>
        <mxCell id="lEryGDBUFIUMpNGzXzRM-3" value="" style="endArrow=block;html=1;rounded=0;endFill=0;exitX=0.5;exitY=1;exitDx=0;exitDy=0;entryX=0.5;entryY=0;entryDx=0;entryDy=0;labelBackgroundColor=none;strokeColor=#23445D;fontColor=default;" parent="WIyWlLk6GJQsqaUBKTNV-1" source="lEryGDBUFIUMpNGzXzRM-29" target="lEryGDBUFIUMpNGzXzRM-0" edge="1">
          <mxGeometry relative="1" as="geometry">
            <mxPoint x="186.25" y="349.54999999999995" as="sourcePoint" />
            <mxPoint x="170" y="170" as="targetPoint" />
          </mxGeometry>
        </mxCell>
        <mxCell id="lEryGDBUFIUMpNGzXzRM-4" value="no" style="edgeLabel;resizable=0;html=1;align=center;verticalAlign=middle;labelBackgroundColor=none;fontColor=#FFFFFF;" parent="lEryGDBUFIUMpNGzXzRM-3" connectable="0" vertex="1">
          <mxGeometry relative="1" as="geometry">
            <mxPoint y="-7" as="offset" />
          </mxGeometry>
        </mxCell>
        <mxCell id="lEryGDBUFIUMpNGzXzRM-5" value="Elementary Os" style="rounded=1;whiteSpace=wrap;html=1;fontSize=12;glass=0;strokeWidth=1;shadow=0;labelBackgroundColor=none;fillColor=#182E3E;strokeColor=#FFFFFF;fontColor=#FFFFFF;" parent="WIyWlLk6GJQsqaUBKTNV-1" vertex="1">
          <mxGeometry x="20" y="380" width="80" height="40" as="geometry" />
        </mxCell>
        <mxCell id="lEryGDBUFIUMpNGzXzRM-6" value=" ZorinOS" style="rounded=1;whiteSpace=wrap;html=1;fontSize=12;glass=0;strokeWidth=1;shadow=0;labelBackgroundColor=none;fillColor=#182E3E;strokeColor=#FFFFFF;fontColor=#FFFFFF;" parent="WIyWlLk6GJQsqaUBKTNV-1" vertex="1">
          <mxGeometry x="20" y="320" width="80" height="40" as="geometry" />
        </mxCell>
        <mxCell id="lEryGDBUFIUMpNGzXzRM-11" value="" style="endArrow=block;html=1;rounded=0;endFill=0;labelBackgroundColor=none;strokeColor=#23445D;fontColor=default;exitX=0;exitY=0.5;exitDx=0;exitDy=0;entryX=1;entryY=0.5;entryDx=0;entryDy=0;" parent="WIyWlLk6GJQsqaUBKTNV-1" source="lEryGDBUFIUMpNGzXzRM-0" target="lEryGDBUFIUMpNGzXzRM-5" edge="1">
          <mxGeometry relative="1" as="geometry">
            <mxPoint x="140" y="359.55" as="sourcePoint" />
            <mxPoint x="115" y="459.55" as="targetPoint" />
            <Array as="points">
              <mxPoint x="130" y="430" />
              <mxPoint x="130" y="400" />
            </Array>
          </mxGeometry>
        </mxCell>
        <mxCell id="lEryGDBUFIUMpNGzXzRM-14" value="si" style="edgeLabel;resizable=0;html=1;align=center;verticalAlign=middle;labelBackgroundColor=none;fontColor=#FFFFFF;" parent="WIyWlLk6GJQsqaUBKTNV-1" connectable="0" vertex="1">
          <mxGeometry x="130" y="430" as="geometry" />
        </mxCell>
        <mxCell id="lEryGDBUFIUMpNGzXzRM-24" value="" style="endArrow=block;html=1;rounded=0;endFill=0;entryX=0.998;entryY=0.438;entryDx=0;entryDy=0;labelBackgroundColor=none;strokeColor=#23445D;fontColor=default;entryPerimeter=0;" parent="WIyWlLk6GJQsqaUBKTNV-1" target="lEryGDBUFIUMpNGzXzRM-6" edge="1">
          <mxGeometry relative="1" as="geometry">
            <mxPoint x="130" y="337" as="sourcePoint" />
            <mxPoint x="290" y="360" as="targetPoint" />
          </mxGeometry>
        </mxCell>
        <mxCell id="lEryGDBUFIUMpNGzXzRM-26" value="" style="endArrow=block;html=1;rounded=0;endFill=0;labelBackgroundColor=none;strokeColor=#23445D;fontColor=default;" parent="WIyWlLk6GJQsqaUBKTNV-1" edge="1">
          <mxGeometry relative="1" as="geometry">
            <mxPoint x="130.23000000000002" y="407.27" as="sourcePoint" />
            <mxPoint x="130" y="350" as="targetPoint" />
          </mxGeometry>
        </mxCell>
        <mxCell id="lEryGDBUFIUMpNGzXzRM-28" value="" style="endArrow=none;html=1;rounded=0;endFill=0;labelBackgroundColor=none;strokeColor=#23445D;fontColor=default;" parent="WIyWlLk6GJQsqaUBKTNV-1" edge="1">
          <mxGeometry relative="1" as="geometry">
            <mxPoint x="130" y="350" as="sourcePoint" />
            <mxPoint x="130" y="330" as="targetPoint" />
          </mxGeometry>
        </mxCell>
        <mxCell id="lEryGDBUFIUMpNGzXzRM-29" value="parecido a Windows" style="rhombus;whiteSpace=wrap;html=1;shadow=0;fontFamily=Helvetica;fontSize=12;align=center;strokeWidth=1;spacing=6;spacingTop=-4;labelBackgroundColor=none;fillColor=#182E3E;strokeColor=#FFFFFF;fontColor=#FFFFFF;" parent="WIyWlLk6GJQsqaUBKTNV-1" vertex="1">
          <mxGeometry x="140" y="240" width="100" height="100" as="geometry" />
        </mxCell>
        <mxCell id="lEryGDBUFIUMpNGzXzRM-30" value="" style="endArrow=block;html=1;rounded=0;endFill=0;exitX=0;exitY=0.5;exitDx=0;exitDy=0;entryX=1;entryY=0.5;entryDx=0;entryDy=0;labelBackgroundColor=none;strokeColor=#23445D;fontColor=default;" parent="WIyWlLk6GJQsqaUBKTNV-1" source="WZA_W1-3168fjfzmkXRs-34" target="lEryGDBUFIUMpNGzXzRM-29" edge="1">
          <mxGeometry relative="1" as="geometry">
            <mxPoint x="260" y="330" as="sourcePoint" />
            <mxPoint x="258.75" y="365.45000000000005" as="targetPoint" />
            <Array as="points">
              <mxPoint x="260" y="380" />
              <mxPoint x="260" y="290" />
            </Array>
          </mxGeometry>
        </mxCell>
        <mxCell id="lEryGDBUFIUMpNGzXzRM-31" value="no" style="edgeLabel;resizable=0;html=1;align=center;verticalAlign=middle;labelBackgroundColor=none;fontColor=#FFFFFF;" parent="lEryGDBUFIUMpNGzXzRM-30" connectable="0" vertex="1">
          <mxGeometry relative="1" as="geometry">
            <mxPoint x="10" y="42" as="offset" />
          </mxGeometry>
        </mxCell>
        <mxCell id="lEryGDBUFIUMpNGzXzRM-38" value="" style="endArrow=block;html=1;rounded=0;endFill=0;exitX=1;exitY=0.5;exitDx=0;exitDy=0;entryX=0.5;entryY=1;entryDx=0;entryDy=0;labelBackgroundColor=none;strokeColor=#23445D;fontColor=default;" parent="WIyWlLk6GJQsqaUBKTNV-1" source="B3d_4BNv6bFsKflRq1dp-0" target="B3d_4BNv6bFsKflRq1dp-4" edge="1">
          <mxGeometry relative="1" as="geometry">
            <mxPoint x="600" y="240" as="sourcePoint" />
            <mxPoint x="600" y="280" as="targetPoint" />
            <Array as="points">
              <mxPoint x="600" y="260" />
            </Array>
          </mxGeometry>
        </mxCell>
        <mxCell id="lEryGDBUFIUMpNGzXzRM-39" value="si" style="edgeLabel;resizable=0;html=1;align=center;verticalAlign=middle;labelBackgroundColor=none;fontColor=#FFFFFF;" parent="lEryGDBUFIUMpNGzXzRM-38" connectable="0" vertex="1">
          <mxGeometry relative="1" as="geometry">
            <mxPoint x="-40" y="12" as="offset" />
          </mxGeometry>
        </mxCell>
        <mxCell id="lEryGDBUFIUMpNGzXzRM-40" value="" style="endArrow=block;html=1;rounded=0;endFill=0;exitX=0.5;exitY=0;exitDx=0;exitDy=0;labelBackgroundColor=none;strokeColor=#23445D;fontColor=default;entryX=0.5;entryY=0;entryDx=0;entryDy=0;" parent="WIyWlLk6GJQsqaUBKTNV-1" source="B3d_4BNv6bFsKflRq1dp-4" target="WIyWlLk6GJQsqaUBKTNV-6" edge="1">
          <mxGeometry relative="1" as="geometry">
            <mxPoint x="680" y="200" as="sourcePoint" />
            <mxPoint x="380" y="70" as="targetPoint" />
            <Array as="points">
              <mxPoint x="600" y="90" />
              <mxPoint x="340" y="90" />
            </Array>
          </mxGeometry>
        </mxCell>
        <mxCell id="lEryGDBUFIUMpNGzXzRM-43" value="&lt;div&gt;al dia&lt;br&gt;&lt;/div&gt;" style="rhombus;whiteSpace=wrap;html=1;direction=south;labelBackgroundColor=none;fillColor=#182E3E;strokeColor=#FFFFFF;fontColor=#FFFFFF;" parent="WIyWlLk6GJQsqaUBKTNV-1" vertex="1">
          <mxGeometry x="160" y="660" width="80" height="80" as="geometry" />
        </mxCell>
        <mxCell id="lEryGDBUFIUMpNGzXzRM-45" value="systemd" style="rhombus;whiteSpace=wrap;html=1;shadow=0;fontFamily=Helvetica;fontSize=12;align=center;strokeWidth=1;spacing=6;spacingTop=-4;labelBackgroundColor=none;fillColor=#182E3E;strokeColor=#FFFFFF;fontColor=#FFFFFF;" parent="WIyWlLk6GJQsqaUBKTNV-1" vertex="1">
          <mxGeometry x="300" y="660" width="100" height="80" as="geometry" />
        </mxCell>
        <mxCell id="YRzDsygd4bY8bD6mQSUW-2" value="" style="endArrow=block;html=1;rounded=0;endFill=0;exitX=0;exitY=0.5;exitDx=0;exitDy=0;entryX=1;entryY=0.5;entryDx=0;entryDy=0;labelBackgroundColor=none;strokeColor=#23445D;fontColor=default;" parent="WIyWlLk6GJQsqaUBKTNV-1" source="WIyWlLk6GJQsqaUBKTNV-10" target="WZA_W1-3168fjfzmkXRs-8" edge="1">
          <mxGeometry relative="1" as="geometry">
            <mxPoint x="280" y="590" as="sourcePoint" />
            <mxPoint x="280" y="640" as="targetPoint" />
          </mxGeometry>
        </mxCell>
        <mxCell id="YRzDsygd4bY8bD6mQSUW-3" value="+120min" style="edgeLabel;resizable=0;html=1;align=center;verticalAlign=middle;labelBackgroundColor=none;fontColor=#FFFFFF;" parent="YRzDsygd4bY8bD6mQSUW-2" connectable="0" vertex="1">
          <mxGeometry relative="1" as="geometry">
            <mxPoint x="1" as="offset" />
          </mxGeometry>
        </mxCell>
        <mxCell id="YRzDsygd4bY8bD6mQSUW-6" value="&lt;div style=&quot;font-size: 20px;&quot;&gt;Diagrama Para elegir un sistema operativo&lt;br&gt;&lt;/div&gt;&lt;div&gt;por Ariel Parra&lt;/div&gt;" style="text;align=center;verticalAlign=middle;resizable=0;points=[];autosize=1;fontFamily=Helvetica;html=1;labelBackgroundColor=none;labelBorderColor=none;fontColor=#FFFFFF;" parent="WIyWlLk6GJQsqaUBKTNV-1" vertex="1">
          <mxGeometry x="160" y="20" width="400" height="50" as="geometry" />
        </mxCell>
        <mxCell id="YRzDsygd4bY8bD6mQSUW-7" value="&lt;div style=&quot;&quot;&gt;&lt;font style=&quot;font-size: 12px;&quot;&gt;version 1 (2023/07/19)&lt;br&gt;&lt;/font&gt;&lt;/div&gt;&lt;div style=&quot;&quot;&gt;&lt;font style=&quot;font-size: 12px;&quot;&gt;Este diagrama tiene una licencia CC-BY,&lt;/font&gt;&lt;/div&gt;&lt;div style=&quot;&quot;&gt;&lt;font style=&quot;font-size: 12px;&quot;&gt;si quieres que implemente algo contactame&lt;/font&gt;&lt;/div&gt;&lt;div style=&quot;&quot;&gt;&lt;font style=&quot;font-size: 12px;&quot;&gt;por mi email: correo@arielparra.tech&lt;br&gt;&lt;/font&gt;&lt;/div&gt;" style="text;align=center;verticalAlign=middle;resizable=0;points=[];autosize=1;fontFamily=Helvetica;html=1;labelBackgroundColor=none;labelBorderColor=none;fontColor=#FFFFFF;" parent="WIyWlLk6GJQsqaUBKTNV-1" vertex="1">
          <mxGeometry x="530" y="960" width="250" height="70" as="geometry" />
        </mxCell>
        <mxCell id="YRzDsygd4bY8bD6mQSUW-10" value="" style="endArrow=block;html=1;rounded=0;endFill=0;labelBackgroundColor=none;strokeColor=#23445D;fontColor=default;exitX=0.5;exitY=1;exitDx=0;exitDy=0;entryX=1;entryY=0.5;entryDx=0;entryDy=0;" parent="WIyWlLk6GJQsqaUBKTNV-1" source="WZA_W1-3168fjfzmkXRs-8" target="zSs0rb3qWY8XgjxG6bn7-13" edge="1">
          <mxGeometry relative="1" as="geometry">
            <mxPoint x="200" y="640" as="sourcePoint" />
            <mxPoint x="110" y="630" as="targetPoint" />
            <Array as="points">
              <mxPoint x="190" y="630" />
            </Array>
          </mxGeometry>
        </mxCell>
        <mxCell id="YRzDsygd4bY8bD6mQSUW-11" value="suficiente" style="edgeLabel;resizable=0;html=1;align=center;verticalAlign=middle;labelBackgroundColor=none;fontColor=#FFFFFF;" parent="YRzDsygd4bY8bD6mQSUW-10" connectable="0" vertex="1">
          <mxGeometry relative="1" as="geometry">
            <mxPoint as="offset" />
          </mxGeometry>
        </mxCell>
      </root>
    </mxGraphModel>
  </diagram>
</mxfile>
